<svg xmlns="http://www.w3.org/2000/svg" width="1024" height="1024" viewBox="0 0 1024 1024"><path fill="#fff" d="M0 0h1024v1024H0z"/><g fill="#b8956a"><path d="M561.4 437.5h13.2l36.3 70.1 35.9-70.1H660v95.2h-10.2l-.2-80.4-35.8 70.2h-6.3l-36.1-70.2v80.4h-10.1zm180 0h11.2l42.6 95.2h-11.7l-36.7-84-36.4 84h-11.5zm-23.7 61h57.8v9.4h-57.8z"/><path d="M485.4 440h11.4l29 66h-12l-23-54.8-23 54.9h-11.6zm-14.6 41.3h39.5v9.5h-39.5z"/><path d="M850.6 494h4.5l11.4 26.2h-4.7l-9.1-21.8-9 21.8H839zm-5.8 16.4h15.6v3.7h-15.6z"/><path d="M842.4 448.2h4.4v14l12.5-14h5.2l-17.7 19.4v6.8h-4.4zm11.5 10.6 11.3 15.6h-5.3l-9-12.1z"/><path d="M128 437.5h73v9.5h-31.1v85.7h-11V447H128Zm133.6 0h11.2l42.5 95.2h-11.7l-36.7-84-36.4 84h-11.4zm-23.8 61h57.8v9.4h-57.8zm117.6-61h10.8v56.6l51.1-56.6h13.1l-64.2 70v25.2h-10.8zm35.6 39.7 42 55.5h-13.2l-35.9-46.8z"/><path fill="none" stroke="#b8956a" stroke-width="5.7" d="M819.6 430.5h73.5v106.4h-73.5Z"/><path d="M140.7 568.5h3.2l17.5 24-.9.2v-24.2h3.1v27.6h-3.2L143 572.3l.8-.3V596h-3.1zm69 0h3.2l12.3 27.6h-3.4l-10.6-24.4-10.6 24.4h-3.3zm-7 17.7h16.8v2.7h-16.8zm49.6-17.7h21.2v2.8h-9V596h-3.2v-24.8h-9zm57.3 16.4q0 4.1 2.3 6.5 2.2 2.2 6.1 2.2 4 0 6.1-2.2 2.3-2.3 2.3-6.5v-16.4h3.1v16.4q0 3.6-1.4 6.2-1.3 2.5-4 4-2.5 1.3-6 1.3-3.7 0-6.3-1.4-2.6-1.4-4-4-1.4-2.5-1.4-6.1v-16.4h3.2zm67-16.4q5.2 0 8 2.5 2.9 2.4 2.9 6.7 0 4.6-2.9 7.1-2.8 2.5-8 2.5h-7.4v8.8h-3.1v-27.6zm0 16q3.7 0 5.8-1.6 2-1.8 2-5 0-3.3-2-5-2-1.6-5.8-1.6h-7.4v13.3zm1 1.5h3.1l7 10.1h-3.5zm55-17.5h3.2l12.4 27.6h-3.4L434 571.7l-10.5 24.4h-3.4zm-7 17.7h16.9v2.7h-16.8zm56-17.7h3.1v25H497v2.6h-15.3zm101.9 0q2.8 0 4.7.8 2 .9 3.1 2.4 1 1.5 1 3.7 0 2.4-1.3 4.1-1.3 1.7-3.7 2.1 3 .5 4.6 2.3 1.7 1.9 1.7 4.7 0 2.4-1.2 4.1-1.2 1.7-3.4 2.6-2.2.8-5.4.8h-11.8v-27.6zm-.2 12q2.8 0 4.3-1.2 1.6-1.2 1.6-3.5 0-2.2-1.6-3.4-1.5-1.2-4.3-1.1H575v9.2zm0 13q3.4 0 5.2-1.4 1.9-1.4 1.9-3.8t-1.9-3.7q-1.8-1.3-5.2-1.3H575v10.1zm45.8-25h18.7v2.8h-15.6v9.4h14v2.8h-14v10h16.1v2.6h-19.2zm63.3 0h3.2l12.3 27.6h-3.3l-10.7-24.4-10.6 24.4H680zm-7 17.7h16.8v2.7h-16.7zm58-1.3q0 4.1 2.3 6.5 2.3 2.2 6.2 2.2 3.9 0 6.1-2.2 2.2-2.3 2.2-6.5v-16.4h3.2v16.4q0 3.6-1.4 6.2-1.4 2.5-4 4-2.5 1.3-6.1 1.3-3.6 0-6.2-1.4t-4-4q-1.4-2.5-1.4-6.1v-16.4h3.2zm53-16.4h21.2v2.8h-9V596h-3.2v-24.8h-9zm50.6 0h3.2l9 14.6 8.8-14.6h3.3l-11.9 20h-.5zm10.7 16.3h3V596h-3z"/><path d="M461.5 520.5h59.4v8.8h-59.4Z"/></g></svg>