<svg xmlns="http://www.w3.org/2000/svg" width="1024" height="225" viewBox="0 0 1024 225"><g fill="var(--main,#b8956a)"><g id="logo-title"><path aria-label="TAK" d="M0 13.2h97.3v12.7H55.8V140H41.3V26H0Zm178.2 0H193L249.8 140h-15.6l-49-112-48.5 112h-15.3zm-31.7 81.3h77V107h-77Zm156.7-81.3h14.5v75.4l68.1-75.4h17.4l-85.5 93.3V140h-14.5zM350.6 66l56 74h-17.5l-47.9-62.4Z"/><path aria-label="A" d="M476.5 16.5h15.3l38.5 88.1h-15.9l-30.7-73.1-30.6 73.1h-15.4ZM457 71.6h52.8v12.6H457z"/><path d="M444.7 123.8h79.2v11.8h-79.2z"/><path aria-label="MA" d="M577.9 13.2h17.5l48.4 93.5 47.9-93.5h17.7V140h-13.6l-.1-107-47.9 93.4h-8.3L591.3 33V140h-13.4zm240 0h15L889.5 140H874L825 28l-48.5 112h-15.3zm-31.6 81.3h77V107h-77z"/><path fill="none" stroke="var(--main,#b8956a)" stroke-width="7.6" d="M922.1 3.8h98v141.9h-98z"/><path aria-label="A" d="M963.4 88.5h6l15.3 34.9h-6.3l-12.1-29-12.2 29h-6zm-7.7 21.8h20.9v5h-21z"/><path aria-label="K" d="M952.6 27.4h5.8v18.8l16.7-18.8h7l-23.7 26v9h-5.8zm15.3 14.1 15 20.8h-7l-12-16Z"/></g><path id="logo-subtitle" aria-label="NATURAL BEAUTY" d="M16.9 187.8h4.4l23.2 32-1.1.3v-32.3h4.1v36.9h-4.3L20 192.8l1.1-.3v32.2h-4.2zm92 0h4.2l16.5 36.9h-4.5L110.9 192l-14.1 32.6h-4.4zm-9.3 23.7H122v3.6H99.6Zm66.1-23.7H194v3.7h-12v33.2h-4.3v-33.2h-12zm76.4 21.9q0 5.5 3 8.6 3 3 8.3 3 5.2 0 8.1-3 3-3 3-8.6v-21.9h4.2v21.9q0 4.8-1.9 8.2-1.8 3.5-5.2 5.3-3.5 1.8-8.2 1.8-4.8 0-8.3-1.8-3.5-1.8-5.3-5.3-1.9-3.4-1.9-8.2v-21.9h4.2zm89.4-21.9q6.9 0 10.7 3.3 3.8 3.2 3.8 9 0 6.1-3.8 9.5-3.8 3.3-10.7 3.3h-9.8v11.8h-4.2v-36.9zm0 21.4q5 0 7.7-2.2 2.8-2.3 2.8-6.8 0-4.3-2.8-6.5-2.7-2.2-7.7-2.2h-9.8v17.7zm1.2 2h4.3l9.3 13.5h-4.7zm73.4-23.4h4.3l16.5 36.9h-4.5L408.2 192 394 224.7h-4.4zm-9.2 23.7h22.4v3.6h-22.4Zm74.5-23.7h4.3V221h16.1v3.7h-20.4zm135.9 0q3.7 0 6.3 1.1 2.7 1.1 4.1 3.2 1.5 2 1.5 5 0 3.1-1.8 5.4-1.8 2.2-5 2.9 4 .5 6.2 3t2.2 6.3q0 3.1-1.6 5.4-1.6 2.2-4.6 3.4-2.9 1.2-7.1 1.2h-15.7v-36.9zm-.2 16q3.6 0 5.7-1.6t2.1-4.6q0-3-2.1-4.5-2-1.6-5.7-1.6H596V204zm0 17.2q4.4 0 7-1.8 2.4-1.7 2.4-5 0-3.2-2.5-4.9-2.5-1.8-7-1.8h-11V221zm61-33.2h25v3.7h-20.8v12.6H691v3.7h-18.6V221h21.5v3.7h-25.7zm84.4 0h4.3l16.5 36.9h-4.6L754.5 192l-14 32.6H736zm-9.2 23.7h22.3v3.6h-22.3zm77.3-1.8q0 5.5 3 8.6 3 3 8.2 3 5.3 0 8.2-3 3-3 3-8.6v-21.9h4.2v21.9q0 4.8-1.9 8.2-1.8 3.5-5.2 5.3-3.5 1.8-8.3 1.8-4.7 0-8.2-1.8-3.5-1.8-5.3-5.3-1.9-3.4-1.9-8.2v-21.9h4.2zm70.6-21.9h28.3v3.7h-12v33.2h-4.3v-33.2h-12zm67.5 0h4.3l12 19.6 11.7-19.6h4.3l-15.7 26.8h-.7zm14.2 21.7h4.1v15.2H973z"/></g></svg>